<?xml version="1.0" standalone="no"?>
<!DOCTYPE svg PUBLIC "-//W3C//DTD SVG 1.1//EN" "http://www.w3.org/Graphics/SVG/1.1/DTD/svg11.dtd" >
<svg xmlns="http://www.w3.org/2000/svg">
<metadata>
Created by FontForge 20120731 at Thu Mar 23 14:42:46 2017
 By admin
</metadata>
<defs>
<font id="iconfont" horiz-adv-x="1024" >
  <font-face 
    font-family="iconfont"
    font-weight="500"
    font-stretch="normal"
    units-per-em="1024"
    panose-1="2 0 6 3 0 0 0 0 0 0"
    ascent="896"
    descent="-128"
    x-height="792"
    bbox="0 -242 1029 896"
    underline-thickness="0"
    underline-position="0"
    unicode-range="U+0078-E933"
  />
<missing-glyph 
 />
    <glyph glyph-name=".notdef" 
 />
    <glyph glyph-name=".notdef" 
 />
    <glyph glyph-name=".null" horiz-adv-x="0" 
 />
    <glyph glyph-name="nonmarkingreturn" horiz-adv-x="341" 
 />
    <glyph glyph-name="x" unicode="x" horiz-adv-x="1001" 
d="M281 543q-27 -1 -53 -1h-83q-18 0 -36.5 -6t-32.5 -18.5t-23 -32t-9 -45.5v-76h912v41q0 16 -0.5 30t-0.5 18q0 13 -5 29t-17 29.5t-31.5 22.5t-49.5 9h-133v-97h-438v97zM955 310v-52q0 -23 0.5 -52t0.5 -58t-10.5 -47.5t-26 -30t-33 -16t-31.5 -4.5q-14 -1 -29.5 -0.5
t-29.5 0.5h-32l-45 128h-439l-44 -128h-29h-34q-20 0 -45 1q-25 0 -41 9.5t-25.5 23t-13.5 29.5t-4 30v167h911zM163 247q-12 0 -21 -8.5t-9 -21.5t9 -21.5t21 -8.5q13 0 22 8.5t9 21.5t-9 21.5t-22 8.5zM316 123q-8 -26 -14 -48q-5 -19 -10.5 -37t-7.5 -25t-3 -15t1 -14.5
t9.5 -10.5t21.5 -4h37h67h81h80h64h36q23 0 34 12t2 38q-5 13 -9.5 30.5t-9.5 34.5q-5 19 -11 39h-368zM336 498v228q0 11 2.5 23t10 21.5t20.5 15.5t34 6h188q31 0 51.5 -14.5t20.5 -52.5v-227h-327z" />
    <glyph glyph-name="zujitupian" unicode="&#xe600;" horiz-adv-x="1000" 
d="M266.5 484q63.5 0 108.5 45t45 108.5t-45 108.5t-108.5 45t-108.5 -45t-45 -108.5t45 -108.5t108.5 -45zM916 58l-223 536q-4 10 -15.5 11t-17.5 -9l-258 -422l-77 126q-5 8 -15 8q-11 0 -16 -8l-163 -238q-6 -9 -1 -19t16 -10h753q10 0 15 8t2 17z" />
    <glyph glyph-name="bangzhu" unicode="&#xe608;" 
d="M515 812q105 0 198 -40t162.5 -110t109.5 -163t40 -198q0 -106 -40 -199t-109.5 -162.5t-162.5 -109.5t-198 -40q-106 0 -199.5 40t-162.5 109.5t-109 162.5t-40 199q0 105 40 198t109 163t162.5 110t199.5 40v0zM547 -79q30 0 51.5 21t21.5 51q0 32 -21.5 53t-51.5 21
q-31 0 -52 -21t-21 -53q0 -30 21 -51t52 -21v0zM616 215q0 14 20.5 33.5t44.5 48.5t44.5 67.5t20.5 90.5q0 34 -13.5 72t-42.5 69.5t-75 52t-111 20.5q-76 0 -121 -26.5t-68 -64.5t-30 -78.5t-7 -68.5q0 -26 21.5 -37t47 -9.5t47 15.5t21.5 36q0 14 1.5 31.5t11 33t28 26
t50.5 10.5q51 0 80.5 -28t29.5 -66q0 -32 -21 -61t-46 -53.5t-46 -43.5t-21 -30v-79q0 -9 21 -14t46 -4.5t46 6t21 17.5v34v0zM616 215z" />
    <glyph glyph-name="shangchuan" unicode="&#xe636;" 
d="M741 285zM896 108l-8 16l-112 224q-8 16 -26 16h-93q-7 0 -12 -5.5t-5 -12.5v-29q0 -8 5 -13t12 -5h30q17 0 25 -15l80 -161q3 -7 0 -11.5t-10 -4.5h-126q-8 0 -13 -5t-5 -12v-91q0 -7 -5 -12.5t-12 -5.5h-219q-7 0 -12.5 5.5t-5.5 12.5v91q0 7 -5 12t-12 5h-129
q-7 0 -10 4.5t1 11.5l83 161q8 15 25 15h29q7 0 12 5.5t5 12.5v29q0 7 -5 12t-12 5h-93q-17 0 -25 -15l-113 -225q-2 -4 -3.5 -7.5t-2.5 -5.5l-1 -2v-18v-158q0 -7 5 -12t12 -5h734q7 0 12 5t5 12v159v17zM353 441h95v-268h128v268h101q7 0 8.5 4t-3.5 9l-158 179
q-5 5 -11.5 5t-11.5 -5l-155 -179q-4 -5 -2.5 -9t9.5 -4z" />
    <glyph glyph-name="circularshouce" unicode="&#xe6c0;" 
d="M296 164q2 -55 120 -37l30 5v0q-1 -3 -2 -8.5t-3 -21t-2.5 -30t1 -32t5 -30t12.5 -21t22 -8.5h244v493h-427v-310zM343 427h342v-53h-342v53zM343 338h342v-53h-342v53zM343 249h342v-53h-342v53zM512 778q-98 0 -186.5 -38t-153 -102.5t-102.5 -153t-38 -186.5
t38 -186.5t102.5 -153t153 -102.5t186.5 -38t186.5 38t153 102.5t102.5 153t38 186.5t-38 186.5t-102.5 153t-153 102.5t-186.5 38zM646 637q0 11 7.5 19t18.5 8t19 -8t8 -19v-74q0 -11 -8 -18.5t-19 -7.5t-18.5 7.5t-7.5 18.5v74zM483 637q0 11 8 19t19 8t18.5 -8t7.5 -19
v-74q0 -11 -7.5 -18.5t-18.5 -7.5t-19 7.5t-8 18.5v74zM321 637q0 11 8 19t19 8t18.5 -8t7.5 -19v-74q0 -11 -7.5 -18.5t-18.5 -7.5t-19 7.5t-8 18.5v74zM766 -62h-343l-157 157l-13 12v527h49v-38q-8 -13 -8 -28q0 -22 16 -37.5t38 -15.5t37.5 15.5t15.5 37.5q0 15 -8 28
v38h72v-38q-8 -13 -8 -28q0 -22 15.5 -37.5t37.5 -15.5t37.5 15.5t15.5 37.5q0 15 -8 28v38h72v-38q-8 -13 -8 -28q0 -22 15.5 -37.5t37.5 -15.5t38 15.5t16 37.5q0 15 -8 28v38h48v-696z" />
    <glyph glyph-name="topic" unicode="&#xe601;" 
d="M819 710q42 0 72.5 -30.5t30.5 -72.5v-409q0 -43 -30.5 -73t-72.5 -30h-102q-49 0 -82 -41l-123 -164l-123 164q-33 41 -82 41h-102q-42 0 -72.5 30t-30.5 73v409q0 42 30.5 72.5t72.5 30.5h614zM819 812h-614q-85 0 -145 -60t-60 -145v-409q0 -85 60 -145t145 -60h102
l133 -174q31 -31 72 -31t72 31l133 174h102q85 0 145 60t60 145v409q0 85 -60 145t-145 60v0zM666 249h-308q-20 0 -35.5 14.5t-15.5 36.5v0q0 20 14.5 35.5t36.5 15.5h308q20 0 35.5 -14.5t15.5 -36.5v0q0 -20 -14.5 -35.5t-36.5 -15.5zM666 454h-308q-22 0 -36.5 15.5
t-14.5 35.5v0q0 20 14.5 35.5t36.5 15.5h308q20 0 35.5 -14.5t15.5 -36.5v0q0 -20 -14.5 -35.5t-36.5 -15.5z" />
    <glyph glyph-name="tool" unicode="&#xe648;" horiz-adv-x="1025" 
d="M995 209l-73 -8q-15 -64 -50 -121l46 -57q8 -10 7.5 -22t-9.5 -21l-85 -84q-8 -9 -20.5 -9.5t-21.5 6.5l-59 47q-56 -33 -120 -48l-8 -76q-1 -12 -10 -20t-22 -8h-119q-13 0 -22 8t-10 20l-9 78q-60 15 -114 48l-59 -47q-10 -8 -22 -7t-21 9l-84 85q-9 8 -9.5 20.5
t6.5 21.5l47 59q-34 55 -49 117l-76 9q-13 1 -21 10t-8 21v120q0 12 8 21t21 10l76 9q15 63 49 118l-47 59q-8 10 -7 22t9 21l85 84q9 9 21 9.5t22 -6.5l59 -48q53 33 114 48l9 77q1 12 10 20t22 8h119q13 0 22 -8t10 -20l8 -75q64 -15 120 -49l59 47q9 7 21.5 6.5
t20.5 -9.5l85 -84q9 -9 9.5 -21t-7.5 -22l-46 -57q35 -56 51 -121l73 -8q12 -1 20 -10t8 -21v-120q0 -12 -8 -21t-21 -10v0zM965 331l-69 8q-10 1 -18 8.5t-10 17.5q-14 77 -59 141q-13 19 2 38l43 54l-45 44l-54 -43q-19 -15 -38 -2q-64 44 -141 57q-10 2 -17.5 10t-8.5 18
l-8 71h-63l-8 -72q-1 -10 -8 -18t-18 -10q-73 -14 -135 -56q-20 -14 -39 1l-55 44l-44 -44l44 -55q15 -19 1 -39q-44 -63 -58 -139q-2 -10 -9.5 -17.5t-18.5 -8.5l-72 -8v-62l72 -8q11 -1 18.5 -8.5t9.5 -17.5q14 -75 58 -138q14 -20 -1 -39l-44 -54l44 -45l55 44
q19 15 39 2q61 -43 135 -57q10 -2 17.5 -10t8.5 -18l8 -73h63l8 71q1 11 8.5 19t17.5 10q76 13 140 56q20 14 38 -1l55 -44l45 44l-44 54q-15 19 -1 39q45 64 59 140q2 11 10 18t18 8l69 8v62v0zM512 106q-80 0 -137 57t-57 137t57 137t137 57t137 -57t57 -137t-57 -137
t-137 -57v0zM512 433q-55 0 -94.5 -39t-39.5 -94t39.5 -94t94.5 -39t94.5 39t39.5 94t-39.5 94t-94.5 39v0z" />
    <glyph glyph-name="write" unicode="&#xe60c;" 
d="M717 473l-118 117l-354 -352l118 -118zM835 590q12 12 12 29.5t-12 29.5l-59 58q-12 13 -29.5 13t-29.5 -13l-88 -88l118 -117zM216 208l-40 -156l157 39zM916 -34h-810q-17 0 -29 -12t-12 -29.5t12 -30t29 -12.5h810q18 0 30 12.5t12 30t-12 29.5t-30 12z" />
    <glyph glyph-name="shoucang" unicode="&#xe60a;" 
d="M1021 -151q0 -25 -16.5 -43t-40.5 -18h-904q-24 0 -40.5 18t-16.5 43v900q0 25 16.5 43t40.5 18h904q24 0 40.5 -18t16.5 -43v-900zM512 632q-32 0 -45 -27l-78 -162l-179 -27q-30 -4 -39.5 -32t11.5 -50l131 -131l-30 -182q-5 -29 20 -47q13 -9 29 -9q12 0 24 6l156 84
l156 -84q11 -6 24 -6q16 0 29 9q25 18 20 47l-30 182l131 131q21 22 11.5 50t-39.5 32l-179 27l-78 162q-13 27 -45 27v0v0zM542 598z" />
    <glyph glyph-name="tool1" unicode="&#xe604;" horiz-adv-x="1025" 
d="M423 776q2 13 15 24t27 11h26.5h38h26.5q16 1 30 -9.5t16 -25.5q17 -98 17 -101q2 -8 5 -14t5 -8l2 -2q28 -12 41 -18q7 -2 12.5 -1t9.5 3l3 2q74 52 88 62q10 7 27 7t25 -8q55 -53 69 -68q12 -12 13.5 -30.5t-7.5 -28.5q-51 -71 -59 -82q-11 -17 -5 -32
q13 -32 14.5 -35.5t7 -8t11.5 -5.5q45 -8 105 -18q17 -3 28 -16.5t11 -33.5v-81q-1 -42 -38 -49q-94 -16 -103 -17q-16 -4 -22 -16q-12 -25 -14 -31q-8 -17 2 -30q52 -72 61 -86q5 -8 7.5 -17.5t-0.5 -22t-13 -22.5q-45 -45 -60 -59q-14 -14 -31.5 -15t-31.5 9
q-68 48 -78 55.5t-15.5 9t-18.5 -1.5q-26 -12 -33 -15q-14 -7 -16 -22q-14 -82 -18 -103q-7 -38 -55 -38h-76q-42 1 -49 41q-15 84 -17 96q-5 22 -20 29q-22 9 -27 11q-19 7 -34 -4q-60 -42 -80 -57q-17 -11 -35 -9.5t-31 14.5l-59.5 59.5t-13.5 28t8 32.5q44 62 56 79
q9 13 10 20.5t-4 18.5l-12 27q-6 16 -26 19q-64 10 -91 15q-47 9 -47 52v78q0 19 10 33.5t27 17.5q10 2 46.5 8t48.5 9q17 3 23.5 6.5t10.5 13.5q12 27 14 34q4 12 -10 33q-37 52 -51 71q-12 17 -13 35.5t13 32.5q50 49 62 61q11 12 26.5 13.5t33.5 -8.5q62 -44 77 -54
q14 -9 20.5 -11t16.5 2l37 15q11 4 14 23q14 87 17 103v0zM438 669q-6 -38 -36 -50q-9 -4 -33 -14q-33 -14 -62 7q-15 11 -81 58q-12 9 -23 -1l-15 -15t-27 -27.5t-17 -16.5q-11 -11 -1 -24q0 -1 56 -78q23 -32 9 -63q-3 -7 -4.5 -11t-2 -5.5t-2.5 -6t-5 -11.5
q-11 -29 -54 -37q-14 -2 -53 -8.5l-39 -6.5q-16 -3 -16 -17v-83q0 -14 15 -18q1 0 97 -16q36 -7 48 -34q2 -5 16 -36q14 -32 -12 -67q-1 -1 -52 -73q-11 -15 0 -26l16.5 -16.5l27 -27t15.5 -14.5q9 -10 23 -1q3 3 19.5 14.5t37.5 27t25 17.5q27 20 64 5q13 -5 18 -7
t8.5 -3.5t8.5 -3.5q10 -4 19 -18.5t12 -32.5q11 -77 16 -93q5 -15 18 -15h82q15 0 17 14l15 88q8 47 43 61l27 11q33 13 62 -7q14 -11 31.5 -23t33 -22t16.5 -11q14 -10 24 0l59 59q10 10 2 22q-2 3 -15.5 22t-30 41.5t-18.5 25.5q-6 9 -7 24.5t4 28.5q9 24 13 34
q6 12 19 22t30 13q8 1 25 4t33 6t30 5.5t15 2.5q4 1 7.5 5t3.5 9v22.5v41v22.5q0 15 -14 17q-1 0 -107 17q-28 5 -42 41q-3 6 -4 8.5t-2.5 7t-5.5 11.5q-13 32 7 62q2 2 60 84q6 9 -1 17l-15.5 15.5l-28 28l-16.5 16.5q-12 12 -22 4q-3 -2 -24.5 -17t-46 -32l-24.5 -17
q-6 -4 -21 -5.5t-25 2.5l-39 17q-10 4 -20.5 17t-11.5 24q-1 1 -19 108q-1 5 -5.5 8.5t-8.5 3.5h-22h-42.5h-23.5q-6 0 -10 -4.5t-5 -9.5q-1 -3 -16 -97v0zM725 300q0 -88 -62 -150t-150.5 -62t-150.5 62t-62 150t62 150.5t150.5 62.5t150.5 -62.5t62 -150.5v0zM512 546
q-102 0 -174 -72t-72 -174t72 -174t174 -72t174 72t72 174t-72 174t-174 72v0zM512 546z" />
    <glyph glyph-name="HTML_PDF" unicode="&#xe628;" 
d="M616 186l-176 177l407 407q-69 59 -155 92t-180 33q-104 0 -199 -40.5t-163.5 -109t-109 -163t-40.5 -198.5t40.5 -199t109 -163.5t163.5 -109t199 -40.5t198.5 40.5t163 109t109 163.5t40.5 199q0 90 -32 177zM342 89l66 242l176 -177z" />
    <glyph glyph-name="transport" unicode="&#xe768;" 
d="M527 564v0q2 -2 4 -5q9 -11 19.5 -21.5t22.5 -20.5q7 -6 14 -11q15 14 31 31q11 13 21 27h-112zM512 832q-91 0 -174 -35.5t-143 -95.5t-95.5 -143t-35.5 -174t35.5 -174t95.5 -143t143 -95.5t174 -35.5t174 35.5t143 95.5t95.5 143t35.5 174t-35.5 174t-95.5 143
t-143 95.5t-174 35.5zM269 652l8 -5q15 -11 26.5 -20t22.5 -18.5t22 -20t25 -24.5l7 -8l-45 -37l-6 9q-16 21 -35 39q-20 18 -50 39l-9 7zM345 183q-8 -6 -13.5 -11.5t-14.5 -17.5l-9 -10l-8 10q-5 8 -11 13t-16 10l-15 8l15 9q27 18 27 51v208q-21 0 -34 -1q-17 -2 -32 -6
l-13 -3v62l11 -1q13 -1 28.5 -2t35.5 -1q15 0 30 1t26 2l21 2l-11 -18q-5 -8 -7 -25q-3 -19 -3 -37v-172v0l9 9t11 12l18 21v-28q0 -8 3 -13q2 -5 8 -10l11 -8zM784 416q-8 -7 -13 -15t-6 -15l-2 -11l-11 3q-22 5 -45 13t-45 18q-19 7 -36 16q1 -2 2 -5q2 -12 -10 -20
q-1 -2 -2 -6q-2 -9 -2 -30v-4h30q17 0 30 1t23 1.5t19 1.5l11 2v-56l-11 1q-19 2 -45 4q-23 1 -57 1v-49h42q22 0 39.5 0.5t31.5 1.5t27 2l11 1v-57l-11 1q-13 2 -26.5 2.5t-30.5 1t-40 1.5h-43q1 -32 2 -53q1 -25 4 -46l1 -11h-67l1 11l2 22q1 10 1.5 22.5t1.5 28.5v26
q-38 0 -71 -1q-37 -1 -60 -4l-11 -1v57l11 -1q24 -2 60 -3q33 -1 71 -1v49q-31 0 -57 -1q-30 -2 -49 -4l-12 -1v56l12 -2q19 -2 49 -3q26 -1 57 -1q0 19 -1 35q-2 20 -4 30q-14 -8 -30 -15q-39 -19 -97 -44l-10 -4l-4 10q-4 9 -9 15q-6 7 -18 14l-23 14l27 5q49 7 91 23
q35 13 65 32q-26 20 -43 40q-20 22 -35 47q-10 0 -19 -1q-10 -1 -17 -2l-12 -2v61l13 -3q8 -1 17 -2q10 -1 25 -1.5t39 -1t62 -0.5q31 0 54 0.5t40 1t29 1.5t22 3l19 2l-9 -18q-20 -37 -49 -70q-23 -28 -51 -52q38 -19 73 -29q42 -12 74 -15l26 -3zM574 436q9 -2 16 -3
q9 -1 17 -1h3h1q-12 6 -23 13q-7 -5 -14 -9z" />
    <glyph glyph-name="iconwendang" unicode="&#xe625;" 
d="M691 488v328l330 -328h-330zM231 486h394v-64h-394v64zM231 287h593v-64h-593v64zM824 25h-593v64h593v-64zM163 -109h725v530h132v-663h-988v1060h593v-133h-462v-794z" />
    <glyph glyph-name="Map" unicode="&#xe655;" 
d="M512 896q-104 0 -199 -40.5t-163.5 -109t-109 -163.5t-40.5 -199t40.5 -199t109 -163.5t163.5 -109t199 -40.5t199 40.5t163.5 109t109 163.5t40.5 199t-40.5 199t-109 163.5t-163.5 109t-199 40.5v0zM306 608v0h-5h5zM497 128l-4 2q-45 29 -105 40.5t-98 10.5t-73 -6
q-10 -2 -17.5 5t-7.5 17v376q0 17 16 22q41 12 83 12.5t72.5 -5.5t60 -18t45 -21t29.5 -19zM832 197q0 -10 -8 -17t-17 -5q-36 5 -74 6t-97.5 -10.5t-105.5 -40.5l-4 -2v417q14 10 29.5 19t45 20.5t60 18t72 5t82.5 -12.5q17 -5 17 -22v-376z" />
    <glyph glyph-name="wangyetubiao113" unicode="&#xe606;" 
d="M1022 382q0 104 -40.5 198t-108.5 162.5t-162.5 109t-198.5 40.5t-198.5 -40.5t-162.5 -109t-108.5 -162.5t-40.5 -198t40.5 -198.5t108.5 -162.5t162.5 -108.5t198.5 -40.5t198 40.5t162.5 108.5t109 162.5t40.5 197.5v0.5v0.5zM546 411v226h225v-226h-225v0zM771 350
v-226h-225v226h225zM254 411v226h225v-226h-225v0zM479 350v-226h-225v226h225z" />
    <glyph glyph-name="store" unicode="&#xe603;" 
d="M959 501l-309 45l-139 280l-138 -280l-309 -45l224 -218l-53 -308l276 146l277 -146l-53 308zM511 190l-195 -103l37 218l-158 154l219 31l97 198l98 -198l218 -31l-158 -154l38 -218zM511 190z" />
    <glyph glyph-name="piliangdaoru" unicode="&#xe8c3;" 
d="M374 590v104l-310 -276l310 -275v103l-172 172zM649 522v206l-378 -310l378 -309v206h69q40 -4 75.5 -21.5t59 -42t43 -53.5t31 -56.5t19 -50.5t10.5 -37l3 -14q3 79 -5.5 146t-25.5 113.5t-40 84t-49.5 60t-53 39t-51 24t-43.5 11t-30.5 4z" />
    <glyph glyph-name="tool2" unicode="&#xe6d9;" 
d="M989 388q0 97 -37.5 185t-101.5 152t-152 101.5t-185 37.5t-185.5 -37.5t-152 -101.5t-101.5 -152t-38 -185t38 -185.5t101.5 -152t152 -101.5t185.5 -38q158 0 287 98q5 6 5 13q0 9 -6 15t-15 6t-15 -6h-1q-114 -84 -255 -84q-117 0 -216.5 57.5t-157 157t-57.5 217
t57.5 216.5t157 157t216.5 58t216.5 -58t157.5 -157t58 -217q0 -109 -49 -201v0q-1 -5 -1 -7q0 -8 6 -14.5t15 -6.5q14 0 19 14v0q54 104 54 219zM821 413q-10 7 -22.5 8t-23.5 -2.5t-17.5 -6.5t-11.5 -6q-113 -68 -139 -82q-12 -5 -24.5 -2.5t-18.5 8.5q-52 62 -77 116
q-5 11 -6.5 21.5t0 17t4.5 12t5 7.5t4 3.5t33 20t70.5 41.5t53.5 31q40 21 45 43q4 17 -8 35q-8 12 -39.5 24.5t-75 19.5t-101.5 -3t-109 -40q-166 -98 -159 -312l1 -11q0 -5 -1 -11t-3 -11t-4 -9.5t-4 -8t-3.5 -6.5t-2.5 -4l-1 -1l-23 -25q-7 -7 -7 -16.5t7 -16.5t17 -7
t17 7l25 26q30 38 30 83v12q-2 12 -0.5 32t3.5 42t11 48.5t23 51.5t39.5 50.5t58.5 45.5q41 24 85 33t79.5 4.5t58 -10.5t35.5 -13q-6 -4 -16 -10q-37 -19 -160 -94q-13 -9 -22.5 -24t-13.5 -41t11 -57q27 -60 86 -130q12 -14 40 -20.5t60 6.5q5 3 16 9t23.5 14t27 16
t27.5 16t23.5 14.5t17 10l6.5 3.5q15 9 23 9q4 -4 0 -28q-2 -17 -7.5 -35t-21 -47t-37.5 -52.5t-61.5 -45t-89.5 -29.5q-56 -10 -137 0q-28 6 -56 4.5t-46 -17.5q-27 -22 -33 -30t-3 -19q4 -18 23 -18q3 0 6 1q8 2 13 8q5 5 24 22q12 9 66 2q88 -11 151 0q60 10 107.5 36
t77.5 61.5t47.5 73.5t24.5 78q8 55 -21 74z" />
    <glyph glyph-name="iconfontcodefork" unicode="&#xe649;" 
d="M384 55q0 23 -16 39t-39 16t-39 -16t-16 -39t16 -39t39 -16t39 16t16 39zM384 713q0 23 -16 39t-39 16t-39 -16t-16 -39t16 -39t39 -16t39 16t16 39zM750 640q0 23 -16 39t-39 16t-39 -16t-16 -39t16 -39t39 -16t39 16t16 39zM805 640q0 -30 -15 -55.5t-40 -39.5
q-1 -164 -129 -236q-39 -22 -116 -47q-74 -23 -97.5 -40.5t-23.5 -56.5v-15q25 -15 40 -40t15 -55q0 -46 -32 -78t-78 -32t-78 32t-32 78q0 30 15 55t40 40v468q-25 15 -40 40t-15 55q0 46 32 78t78 32t78 -32t32 -78q0 -30 -15 -55t-40 -40v-284q31 15 88 33q31 10 50 17
t40.5 17.5t33.5 22.5t23 29t16 39.5t5 52.5q-25 14 -40 39.5t-15 55.5q0 46 32 78t78 32t78 -32t32 -78z" />
    <glyph glyph-name="zuijinliulan" unicode="&#xe663;" 
d="M573 718h-420v-846h556v710zM200 540h124q3 0 3 -15t-3 -15h-124q-3 0 -3 15t3 15zM653 -36h-447q-9 0 -9 15t9 15h447q9 0 9 -15t-9 -15zM653 24h-447q-9 0 -9 16q0 6 2.5 10.5t6.5 4.5h447q9 0 9 -15.5t-9 -15.5zM197 104q0 15 5 15h241q4 0 4 -15t-4 -15h-241
q-5 0 -5 15zM653 151h-447q-9 0 -9 15t9 15h447q9 0 9 -15t-9 -15zM653 211h-447q-9 0 -9 15.5t9 15.5h447q9 0 9 -15.5t-9 -15.5zM653 272h-447q-9 0 -9 15t9 15h447q9 0 9 -15t-9 -15zM653 326h-447q-9 0 -9 15q0 7 2.5 11.5t6.5 4.5h447q9 0 9 -16q0 -6 -3 -10.5t-6 -4.5
zM653 387h-447q-9 0 -9 15t9 15h447q9 0 9 -15t-9 -15zM653 447h-447q-9 0 -9 15q0 7 2.5 11t6.5 4h447q9 0 9 -15q0 -6 -3 -10.5t-6 -4.5zM622 558h-66v133l66 -66l67 -66zM874 757l-136 136h-421v-139h305l136 -137v-570h116v710v0zM787 734h-66v132l132 -132h-66z" />
    <glyph glyph-name="comiisshangchuan" unicode="&#xe66d;" 
d="M852 519h-125v-53h125q22 0 37.5 -15t15.5 -37v-373q0 -21 -15.5 -36.5t-37.5 -15.5h-680q-22 0 -37.5 15.5t-15.5 36.5v373q0 22 15.5 37t37.5 15h125v53h-125q-44 0 -74.5 -31t-30.5 -74v-373q0 -43 30.5 -73.5t74.5 -30.5h680q44 0 74.5 30.5t30.5 73.5v373
q0 43 -30.5 74t-74.5 31zM340 612l146 146v-491q0 -11 7.5 -18.5t18.5 -7.5t18.5 7.5t7.5 18.5v488l143 -143q7 -8 18 -8t19 7.5t8 18.5t-8 19l-189 189q-8 8 -18 8v0q-11 0 -19 -8l-189 -189q-8 -8 -8 -19t8 -18.5t18.5 -7.5t18.5 8z" />
    <glyph glyph-name="m-InformationChanges" unicode="&#xe6a2;" 
d="M698 122q-85 -59 -190 -58q-13 0 -26 1q-2 0 -6 0.5t-5 1.5q-14 1 -21 3q-2 0 -12 2q-12 3 -19 5q-1 1 -10 3q-13 5 -22 8q-1 1 -2.5 1.5t-1.5 1.5q-15 6 -25 11l-0.5 0.5l-0.5 0.5q-41 22 -74 54l-1 2q-10 10 -19 21q-1 0 -2.5 2l-1.5 2q-71 88 -71 200h85l-136 202
l-137 -202h85q0 -131 76 -239l0.5 -1t1.5 -2q2 -4 15 -20q1 0 3 -3t3 -4q10 -12 25 -27l2 -2q42 -42 96 -71q2 -1 3 -2q14 -7 31 -15q1 0 3.5 -1.5t4.5 -1.5q10 -5 27 -10q12 -4 13 -5q8 -2 25 -6q16 -3 17 -3.5t3.5 -1t3.5 -0.5q4 -1 24 -3q1 0 4 -0.5t4 -0.5q23 -3 43 -3
q133 0 244 77q17 12 20.5 32.5t-8.5 37.5t-33 21t-38 -8zM939 384q0 131 -75 238q-1 1 -1.5 2t-0.5 2q-6 8 -19 24q-2 2 -2 3q-66 78 -160 118l-2 1t-3 1q-13 5 -30 11q-1 0 -4.5 1.5t-6.5 2.5q-10 3 -26 6q-1 0 -6.5 1.5t-8.5 2.5q-2 0 -4.5 0.5t-3.5 0.5q-4 1 -11.5 2
t-8.5 1q-2 0 -7 0.5t-7 1.5q-15 1 -34 1q-1 0 -3 0.5t-3 0.5h-0.5h-0.5q-134 -1 -244 -77q-17 -12 -20.5 -32.5t8.5 -37.5t33 -20.5t38 8.5q85 58 188 57q15 0 29 -1q1 0 4 -0.5t5 -0.5q13 -2 22 -4q1 0 10 -2q13 -3 22 -5q2 -1 4 -1.5t3 -1.5q14 -4 24 -8q1 -1 1.5 -1
t1.5 -1q72 -30 122 -90l0.5 -0.5l0.5 -0.5q73 -89 73 -203h-85l136 -202l137 202h-85z" />
    <glyph glyph-name="batchreview" unicode="&#xe8f2;" 
d="M216 628h596v-54h-596v54zM994 497l-38 38q-7 8 -18 8t-19 -8l-57 -56l76 -76l56 57q8 8 8 19t-8 18zM599 215l-25 -100l100 25zM844 460l75 -75l-226 -226l-75 75zM216 411h505l54 54h-559v-54zM615 303h-399v-54h345zM846 -28h-670v772h670v-197l32 33q8 8 19 7v157
q0 22 -15 37t-36 15h-52q0 21 -15 36t-36 15h-669q-22 0 -37 -15t-15 -36v-772q0 -22 15 -37t37 -15h51q0 -21 15 -36t36 -15h670q21 0 36 15t15 36v336l-51 -52v-284v0zM125 744v-720h-51v772h102q-21 0 -36 -15t-15 -37v0zM216 86h307l15 54h-322v-54z" />
    <glyph glyph-name="ChangeActivity" unicode="&#xe63c;" 
d="M512 896q-104 0 -199 -40.5t-163.5 -109t-109 -163.5t-40.5 -199t40.5 -199t109 -163.5t163.5 -109t199 -40.5t199 40.5t163.5 109t109 163.5t40.5 199t-40.5 199t-109 163.5t-163.5 109t-199 40.5v0zM552 103v-2q0 -12 -4 -26q-5 -14 -14 -22t-23.5 -7t-32.5 19
q-35 31 -70 61q-32 29 -68 60q-36 30 -73 61q-8 -1 -15 -1q-5 -1 -12 -1h-11q-17 0 -28 11t-11 25v163h1h-1q0 18 11 29.5t28 11.5h37q60 51 107 91q22 18 41 33.5t36 29.5q14 12 27 23q11 9 13 11q20 14 32 12.5t18.5 -11.5t9.5 -25q2 -15 2 -27v-519v0zM640 270
q-8 8 -8 20q0 5 2 10h-1q4 7 8.5 13.5t8.5 13.5t7 15.5t3 20.5t-3 20q-3 9 -7 16t-9 14q-4 6 -7 13q-2 5 -2 11q0 11 8 19.5t20 8.5q9 0 14.5 -5.5t10.5 -12.5q14 -18 22 -38q8 -19 8 -46q0 -26 -8.5 -46.5t-21.5 -37.5q-5 -7 -10.5 -12.5t-14.5 -5.5q-12 0 -20 9v0z
M826 301q-9 -29 -24 -55.5t-35.5 -48.5t-45.5 -39q-7 -6 -18 -6q-12 0 -21.5 9.5t-9.5 22.5q0 14 11 23l1.5 1.5l0.5 0.5l1 1q18 12 33.5 29t27 36.5t18 41.5t6.5 46q0 48 -24.5 88t-61.5 66q-13 10 -13 26q0 13 9.5 22t21.5 9q11 0 20 -7q23 -16 44 -38.5t35.5 -48.5
t23 -55.5t8.5 -61.5t-8 -62v0z" />
    <glyph glyph-name="zuijinliulan1" unicode="&#xe673;" 
d="M480 641q33 1 35 1q34 0 54 -2q3 -1 40 -8l2 -0.5t3 -0.5q31 -7 37 -9q14 -4 24 -7q3 -1 6.5 -2.5t7.5 -3t6 -2.5q1 0 7.5 -2.5t10.5 -4.5q6 -3 20 -9q20 -9 26 -12q7 -4 19 -11q6 -3 22 -13t19 -12q20 -14 32 -24q39 -31 64 -60q16 -18 24 -29q10 -16 15 -29
q7 -19 -1 -40q-7 -16 -23 -36q-2 -3 -23 -27q-10 -11 -11 -12q-28 -25 -39 -34q-19 -16 -40 -30q-5 -3 -36 -22q-18 -11 -23 -14q-3 -1 -26 -12q-22 -10 -28.5 -13t-14.5 -5q-4 -2 -21 -7q-20 -6 -22 -7q-5 -1 -18 -4t-20 -5q-5 -1 -34 -5q-26 -4 -38 -4h-25.5h-26.5
q-1 0 -31 4h-3.5h-4.5q-36 6 -41 7q-19 4 -40 10q-5 2 -11 4t-13.5 5t-11.5 4q-2 1 -9 3t-11 4l-16 8q-1 0 -6 2.5t-8 3.5q-16 8 -28 15q-23 12 -30 16q-14 9 -34 23.5t-31 23.5q-16 14 -28 27q-21 23 -33 39q-10 14 -19 34q-6 15 -4 41q1 9 7 20q10 19 18 30t28 35
q6 6 16 15q12 11 23 20q23 18 32 24q6 4 38 23q16 10 22 13l8 4t9 4t8 4q2 1 8 3.5t9 4.5q8 3 15 6l18 6q23 8 25 9q11 3 25 6q22 6 39 9q3 1 8.5 1.5t6.5 0.5q6 1 46 6v-1zM540 153v-1q30 3 33 3q5 1 37 7q27 6 31 7q3 1 31 9q1 1 1.5 1h0.5q9 4 20 9q19 7 20 8l24 12
q26 14 32 17q15 9 36 24q18 12 32 24q11 8 24 21q17 16 36 36q15 16 27 38q7 12 4 19q-5 14 -9 19q-16 22 -32 40q-8 9 -27 26q-27 23 -39 32q-22 17 -44 31q-8 5 -50 27l-7 3.5t-6 2.5l-8 4t-9 4q-7 3 -12 5q-12 5 -25 9q-15 5 -20 6q-6 2 -29 7l-40 8q-1 0 -46 2
q-2 0 -4 0.5t-3 0.5q-6 1 -8 0q-1 0 -3.5 -0.5t-3.5 -0.5h-14t-16 -1q-6 0 -52 -6h-2q-33 -8 -36 -9q-19 -5 -24 -6q-3 -1 -16.5 -6t-22.5 -9q-10 -4 -16 -6q-4 -2 -17 -8q-23 -12 -26.5 -13.5t-21.5 -12.5q-18 -10 -20 -12q-17 -12 -26 -19q-32 -26 -44 -37
q-26 -25 -36 -44q-12 -20 -14 -26q-6 -20 6 -42q14 -24 33 -43q21 -21 47 -44q8 -7 33 -24q10 -8 24 -16q7 -4 23 -12q27 -15 35 -18q7 -4 29 -12q30 -11 36 -13q3 -1 50 -12l2 -0.5t3 -0.5q9 -3 12 -3q4 -1 11.5 -1.5t11.5 -1.5q1 0 6.5 -1t9.5 -1h68zM516 534q13 2 44 -6
q3 -1 29 -13q22 -11 42 -36q7 -7 19 -29q7 -12 9 -20q5 -20 6 -38q2 -14 0 -31q-2 -14 -6 -26q-7 -19 -15 -31q-13 -22 -27 -33q-15 -12 -29 -21q-2 -1 -29 -13h-1q-49 -10 -73 -3q-3 1 -6 1q-10 1 -27 9q-17 9 -21 11q-28 19 -40 38q-15 25 -18 32q-2 5 -4 14t-4 12
q-4 14 -3 39q0 4 1.5 12.5t1.5 12.5q2 14 13 36q11 23 31 42q15 15 33 24q15 8 34 13q16 4 40 4zM390 385q0 -23 4 -33q1 -3 3.5 -11t4.5 -12q9 -17 19 -28q10 -10 26 -22q7 -5 22 -11q18 -7 26 -8q19 -2 35 0q24 3 40 13q25 16 30 20q17 17 28 41q11 26 9 59q-1 29 -20 58
q-20 32 -59 48q-19 8 -39 7q-31 0 -42 -5l-11.5 -4.5t-16.5 -8.5q-26 -16 -35 -33q-16 -28 -18 -33q-9 -25 -6 -37z" />
    <glyph glyph-name="tool3" unicode="&#xe640;" 
d="M827 477h-13q-9 29 -24 57l10 9q26 27 26 64t-26 63l-3 3q-26 26 -63 26t-63 -26l-11 -11q-28 14 -57 23v15q0 37 -26 63.5t-63 26.5h-4q-37 0 -63 -26.5t-26 -63.5v-16q-28 -9 -54 -23l-12 12q-26 26 -63 26t-64 -26l-2 -3q-26 -26 -26 -63t26 -64l11 -11
q-14 -26 -23 -55h-17q-37 0 -63 -26t-26 -63v-4q0 -37 26 -63t63 -26h15q8 -30 23 -58l-11 -11q-26 -26 -26 -63t26 -63l3 -3q26 -26 63 -26t63 26l10 10q28 -16 58 -25v-13q0 -37 26 -63.5t63 -26.5h4q37 0 63 26.5t26 63.5v12q31 9 60 25l9 -9q26 -26 63.5 -26t63.5 26
l2 3q27 26 27 63t-27 63l-9 9q15 29 24 60h11q37 0 63 26t26 63v4q0 37 -26 63t-63 26zM514 243q-58 0 -99 41t-41 99t41 99t99 41t99 -41t41 -99t-41 -99t-99 -41z" />
    <glyph glyph-name="wendangicon" unicode="&#xe62b;" 
d="M410 274h130v-21h-130v21zM511 832q-91 0 -174 -35.5t-143 -95.5t-95.5 -143t-35.5 -174t35.5 -174t95.5 -143t143 -95.5t174 -35.5t174 35.5t143 95.5t95.5 143t35.5 174t-35.5 174t-95.5 143t-143 95.5t-174 35.5zM716 511v-7v-50v-307q0 -6 -7 -6h-104h-62h-64v0h-166
q-7 0 -7 6v474q0 6 7 6h250h20v0h1l131 -103h1v-13zM583 602v-78h100zM563 504v20v84h-237v-447h5h148h64v0h153v293v50h-113h-20zM391 504h124v-20h-124v20zM558 236h-167v58h167v-58zM631 334h-239v20h239v-20zM631 380h-239v20h239v-20zM631 452v-20h-2h-238v20h238v0h2z
" />
    <glyph glyph-name="zujidanye" unicode="&#xe932;" 
d="M360 493h192v-62h-192v62zM360 332h334v-61h-334v61zM360 171h334v-61h-334v61zM622 832h-470v-896h719v647zM639 729l109 -109h-109v109zM810 -3h-596v774h364v-213h231h1v-561z" />
    <glyph glyph-name="baobiao" unicode="&#xe60f;" 
d="M839 649q0 -12 8.5 -21t21 -9t21.5 9t9 21v153q0 12 -9 21t-21 9h-153q-12 0 -21 -9t-9 -21.5t9 -21t21 -8.5h83l-263 -263l-82 81q-9 9 -21 9v0q-13 0 -21 -9l-279 -280q-9 -9 -9 -21.5t9 -21.5t21.5 -9t20.5 9l258 259l81 -81q9 -8 21.5 -8t21.5 8l282 282v-78z
M774 514h126v-578h-126v578zM564 395h126v-459h-126v459zM353 279h126v-343h-126v343zM143 152h126v-216h-126v216z" />
    <glyph glyph-name="fabu" unicode="&#xe665;" horiz-adv-x="1029" 
d="M868 78l-418 129l418 482l-547 -482l-321 128l1029 547l-161 -804v0zM450 -115v225l129 -64l-129 -161v0zM450 -115z" />
    <glyph glyph-name="zimuc" unicode="&#xe635;" 
d="M745 105q0 -46 -17.5 -88.5t-48.5 -74.5t-73 -51t-90 -19q-41 0 -83.5 11.5t-76.5 39t-55.5 72.5t-21.5 115v554q0 50 17 92t48 73.5t74 49t95 17.5q50 0 92.5 -17.5t73.5 -49.5t48.5 -76.5t17.5 -96.5v-57h-144v48q0 42 -24 73.5t-65 31.5q-54 0 -71.5 -33.5
t-17.5 -84.5v-515q0 -43 19 -73t69 -30q14 0 30 5t29.5 16.5t22 31t8.5 49.5v50h144v-63z" />
    <glyph glyph-name="zimux" unicode="&#xe641;" 
d="M436 408l-191 488h156l110 -303l112 303h156l-196 -488l212 -536h-156l-128 345l-126 -345h-156z" />
    <glyph glyph-name="zimut" unicode="&#xe644;" 
d="M439 758h-170v138h486v-138h-170v-886h-146v886z" />
    <glyph glyph-name="kaoqin" unicode="&#xe619;" 
d="M682.5 628q24.5 0 43 18.5t18.5 42.5v61q0 24 -18.5 42.5t-43 18.5t-42.5 -18.5t-18 -42.5v-61q0 -24 18 -42.5t42.5 -18.5zM769 725l-1 -32q0 -43 -21 -69.5t-64.5 -26.5t-64.5 26.5t-21 69.5v32h-170v-32q0 -42 -21.5 -69t-64.5 -27t-64 26.5t-21 69.5v32h-128v-31
v-737h30h708h30v737v31h-127zM853 0h-682v555h682v-555zM341.5 628q24.5 0 42.5 18.5t18 42.5v61q0 24 -18 42.5t-42.5 18.5t-43 -18.5t-18.5 -42.5v-61q0 -24 18.5 -42.5t43 -18.5zM284 388q2 -2 5 -2t5 2l16 16v0l74 77q2 2 2 5t-2 5l-14 13q-2 2 -6 2q-2 0 -4 -2l-41 -46
q-28 -30 -32 -30q-2 0 -10 7l-17 15q-2 3 -5.5 2.5t-5.5 -2.5l-10 -11q-3 -2 -2.5 -5t2.5 -5zM497 388q3 -2 6 -2t5 2l16 16v0l74 77q2 2 2 5t-3 5l-13 13q-2 2 -6 2q-2 0 -4 -2l-41 -46q-28 -30 -32 -30q-2 0 -11 7l-16 15q-3 3 -6 2.5t-5 -2.5l-11 -11q-2 -2 -1.5 -5
t2.5 -5zM704 388q2 -2 5 -2t5 2l16 16v0l74 77q2 2 2 5t-2 5l-13 13q-3 2 -7 2q-2 0 -4 -2l-41 -46q-28 -30 -32 -30q-2 0 -10 7l-17 15q-2 3 -5.5 2.5t-5.5 -2.5l-10 -11q-2 -2 -2 -5t2 -5zM281 235q3 -2 6 -2t5 3l16 16v0l74 77q2 2 2 5t-3 5l-13 13q-2 2 -6 2q-2 0 -4 -3
l-41 -46q-28 -30 -32 -30q-2 0 -11 8l-16 15q-3 2 -6 2t-5 -2l-11 -11q-2 -2 -2 -5t3 -6zM281 82q3 -2 6 -2t5 3l16 16v0l74 77q2 2 2 5t-3 5l-13 13q-2 2 -6 2q-2 0 -4 -3l-41 -46q-28 -30 -32 -30q-2 0 -11 8l-16 15q-3 2 -6 2t-5 -2l-11 -11q-2 -2 -2 -5t3 -6zM495 235
q3 -2 6 -2t5 3l16 16v0l74 77q2 2 2 5t-3 5l-13 13q-2 2 -6 2q-2 0 -5 -3l-40 -46q-28 -30 -33 -30q-2 0 -10 8l-16 15q-3 2 -6 2t-5 -2l-11 -11q-2 -2 -2 -5t3 -6zM702 235q2 -2 5 -2t5 3l16 16v0l74 77q2 2 2 5t-2 5l-14 13q-2 2 -6 2q-2 0 -4 -3l-41 -46q-28 -30 -32 -30
q-2 0 -11 8l-16 15q-2 2 -5.5 2t-5.5 -2l-10 -11q-3 -2 -2.5 -5t2.5 -6zM713 171h-30v-86h30h24h31v86h-31h-24zM469 171v-31v-55h31h24h31v55v31h-86z" />
    <glyph glyph-name="zujitans" unicode="&#xe62d;" 
d="M968 2h-130v-111q0 -8 -5.5 -13.5t-13 -5.5t-13 5.5t-5.5 13.5v111h-131q-15 0 -26 11t-11 27v167q0 16 11 26.5t26 10.5h131v131q0 7 5.5 12.5t13 5.5t13 -5.5t5.5 -12.5v-131h130q16 0 26.5 -10.5t10.5 -26.5v-167q0 -16 -10.5 -27t-26.5 -11zM708 207q-16 0 -27 -11
t-11 -26v-93q0 -16 11 -26.5t27 -10.5h93v167h-93zM968 170q0 15 -11 26t-26 11h-93v-167h93q15 0 26 10.5t11 26.5v93zM909 418q-9 0 -15 6.5t-6 15.5v338q0 31 -22 53t-53 22h-676q-31 0 -53 -22t-22 -53v-676q0 -31 22 -53t53 -22h403v-43h-403q-49 0 -83.5 34.5
t-34.5 83.5v676q0 49 34.5 83.5t83.5 34.5h676q49 0 83.5 -34.5t34.5 -83.5v-338q0 -9 -6.5 -15.5t-15.5 -6.5zM571 5q0 -9 -6.5 -15t-15.5 -6h-3v43h3q9 0 15.5 -6.5t6.5 -15.5zM265 151h-42l223 566h42l166 -435h-42l-24 69h-245zM575 383l-78 200q-9 26 -16 49
q-6 15 -16 39q-9 -36 -32 -85l-77 -203h219z" />
    <glyph glyph-name="kaoqin1" unicode="&#xe65b;" 
d="M896 701h-137v108v0q0 9 -6.5 15.5t-15.5 6.5t-15.5 -6.5t-7.5 -15.5v0v-108h-406v108v0q0 9 -6.5 15.5t-15.5 6.5t-15.5 -6.5t-6.5 -15.5v0v-108h-136q-25 0 -43 -18t-18 -43v-641q0 -26 18 -44t43 -18h768q25 0 43 18t18 44v641q0 25 -18 43t-43 18zM98 665q0 3 3 3
h823q3 0 3 -3v-164h-829v164zM928 -23q0 -3 -3 -3h-824q-3 0 -3 3v490h830v-490zM755 323.5q-5 6.5 -13.5 8t-14.5 -3.5l-279 -213l-141 156q-6 7 -14 8t-13.5 -4t-5.5 -13t6 -15l152 -168q3 -3 7 -5v0v0q11 -7 22 1l290 221q6 5 7.5 13t-3.5 14.5z" />
    <glyph glyph-name="edit2" unicode="&#xe62a;" 
d="M1009 496l-59 -57l-159 159l58 57q13 13 31 14.5t30 -9.5l105 -103q11 -11 9 -29.5t-15 -31.5v0v0v0zM763 571l161 -157l-383 -378q-6 -6 -14 -8q-1 0 -3 -1l-200 -62q-10 -3 -15 3q-6 6 -3 15l64 196q0 2 1 3q2 12 9 15l73 67h-243q-7 0 -13 7t-6 14t6 14t13 7h281z
M491 49l-98 97l-27 -82l42 -42zM758 509q-4 4 -10.5 4t-10.5 -4l-300 -294q-5 -4 -5 -10.5t5 -10.5q4 -3 10 -3t10 3l299 295q11 8 2 20v0v0v0zM90 -65q-21 0 -21 14v801q0 5 1 8.5t4.5 5t4.5 1.5h7.5h8.5h69v-27q0 -7 7.5 -13t15.5 -6t15.5 6t7.5 13v27h104v-27q0 -7 7 -13
t16 -6q8 0 15.5 6t7.5 13v27h95v-27q0 -7 7 -13t16 -6q8 0 15 6t7 13v27h95v-27q0 -7 7.5 -13t15.5 -6t15.5 6t7.5 13v27h80q16 0 16 -15v-132l59 57v75q0 31 -21.5 51.5t-53.5 20.5h-81v49q0 8 -7 13.5t-16 5.5q-8 0 -15.5 -5.5t-7.5 -13.5v-49h-95v49q0 8 -7 13.5t-16 5.5
q-8 0 -15.5 -5.5t-7.5 -13.5v-49h-95v49q0 8 -7 13.5t-15 5.5t-15.5 -5.5t-7.5 -13.5v-49h-104v49q0 8 -7 13.5t-16 5.5q-8 0 -15.5 -5.5t-7.5 -13.5v-49h-68q-42 0 -63.5 -20t-21.5 -52v-800q0 -31 24 -51.5t57 -20.5h629q32 0 53 20.5t21 51.5v276l-58 -57v-220
q0 -14 -16 -14h-630zM588 605h-379q-7 0 -12.5 -7t-5.5 -14q0 -8 5.5 -15t12.5 -7h379q7 0 12.5 7t5.5 14.5t-5.5 14.5t-12.5 7v0v0v0zM588 459h-379q-7 0 -12.5 -7t-5.5 -14q0 -8 5 -15t13 -7h379q7 0 12.5 7.5t5.5 14.5t-5.5 14t-12.5 7v0v0v0zM588 459z" />
    <glyph glyph-name="edit1" unicode="&#xe637;" 
d="M845 713h-111v70h-59q-21 31 -65 50.5t-98 19.5t-98 -19.5t-65 -50.5h-58v-70h-111q-40 0 -67.5 -27.5t-27.5 -66.5v-610q0 -39 27.5 -66.5t66.5 -27.5h666q39 0 66.5 27.5t27.5 66.5v610q0 38 -27.5 66t-66.5 28zM322 749h52q0 29 43.5 50t94.5 21t93.5 -21t42.5 -50h54
v-130h-380v130zM901 8q0 -24 -17.5 -41.5t-42.5 -17.5h-661q-25 0 -42.5 17.5t-17.5 41.5v607q0 24 17.5 41.5t42.5 17.5h111v-88h443v88h108q25 0 42 -17.5t17 -41.5v-607zM719 431h-414q-13 0 -21.5 -5.5t-8.5 -13.5t8.5 -13.5t21.5 -5.5h414q13 0 21.5 5.5t8.5 13.5
t-8.5 13.5t-21.5 5.5zM719 290h-414q-13 0 -21.5 -5.5t-8.5 -13.5t8.5 -13.5t21.5 -5.5h414q13 0 21.5 5.5t8.5 13.5t-8.5 13.5t-21.5 5.5zM719 149h-414q-13 0 -21.5 -5.5t-8.5 -13.5t8.5 -13.5t21.5 -5.5h414q13 0 21.5 5.5t8.5 13.5t-8.5 13.5t-21.5 5.5z" />
    <glyph glyph-name="jiegou" unicode="&#xe61d;" 
d="M899 170v223h-23h-24h-304v115h154v387h-387v-387h180v-115h-323h-24h-23v-223h-125v-297h297v297h-125v173h323v-173h-131v-297h296v297h-112v173h304v-173h-125v-297h297v297h-125zM382 575v253h253v-253h-253zM246 119v-195h-195v195h195zM609 -76h-194v195h194v-195z
M973 -76h-195v195h195v-195z" />
    <glyph glyph-name="zujishu" unicode="&#xe767;" 
d="M1020 710q-58 48 -117 74q-28 13 -67 20.5t-63 8.5h-25q-5 -1 -19 0t-47.5 -5.5t-63 -20.5t-58 -32t-42.5 -30l-14 -11q-67 51 -126 78q-26 12 -62 17t-59 5l-23 -1q-82 -4 -134 -28q-23 -10 -48 -30t-39 -34l-13 -15v-720q74 63 118 81q20 8 48 12.5t47 4.5l18 1
q83 -10 132 -30q22 -9 57 -32.5t59.5 -42t24.5 -19.5q59 63 107 87q35 18 76.5 27.5t59.5 8t23 -0.5q49 -2 117 -27q13 -5 27 -11.5t27 -13t25 -13.5t22 -13l17.5 -10.5t11.5 -7.5l4 -3l-1 726v0zM479 41q-5 4 -14 10.5t-37.5 24t-56.5 30.5t-67 23t-73 10
q-78 -2 -119.5 -18t-68.5 -43v74.5v153t-0.5 171.5t-0.5 144.5t0 58.5q2 3 5.5 8.5t19.5 19.5t35.5 25t55 21t77.5 12q44 3 89.5 -8.5t77 -29.5t52 -34.5t23.5 -23.5q2 -15 2 -629zM973 64q-27 28 -86.5 51.5t-137.5 25.5q-34 0 -69 -10t-60.5 -25t-46 -30t-31 -25.5
l-10.5 -10.5q-2 607 2 629q5 9 22 23.5t46 32.5t75.5 30t98.5 9q36 -1 70 -10t56.5 -21t39.5 -24t25 -20l8 -8q-1 -582 -2 -617z" />
    <glyph glyph-name="renwu" unicode="&#xe611;" 
d="M511.5 791q-116.5 0 -215.5 -57.5t-157 -156.5t-58 -216t58 -216t157 -156.5t215.5 -57.5t216 57.5t157 156.5t57.5 216t-57.5 216t-157 156.5t-216 57.5zM779 197h-528v49h528v-49zM779 289h-528v49h528v-49zM779 380h-528v49h528v-49zM779 469h-528v49h528v-49z" />
    <glyph glyph-name="trans" unicode="&#xe605;" 
d="M591 262v-29v0q0 -6 4.5 -10.5t10.5 -4.5v0h43v58h-43v0q-6 0 -10.5 -4t-4.5 -10v0zM405 377h135l-70 147zM512 896q-104 0 -199 -40.5t-163.5 -109t-109 -163.5t-40.5 -199t40.5 -199t109 -163.5t163.5 -109t199 -40.5t199 40.5t163.5 109t109 163.5t40.5 199t-40.5 199
t-109 163.5t-163.5 109t-199 40.5zM519 175h-201q-24 0 -41 17t-17 41v360q0 24 17 40.5t41 16.5h302q24 0 41 -16.5t17 -40.5v-173h-29v173q0 12 -8.5 20.5t-20.5 8.5h-302q-12 0 -20.5 -8.5t-8.5 -20.5v-360v0q0 -12 8.5 -20.5t20.5 -8.5h201v-29zM548 348h-155l-20 -45
q-1 -3 -4 -6q0 -2 -3.5 -3.5t-7.5 -1.5v0q-6 0 -10.5 4t-4.5 11v0q0 4 3 7q0 3 2 5l101 233q3 6 9 10q1 1 3 2t6 1h1.5h0.5v0q4 0 8 -1v0v0q9 -3 12 -12l98 -204h-23h-4.5h-7h-4.5zM764 204v0q0 -6 -4 -10t-10 -4v0h-72v-58v0q0 -6 -4.5 -10t-10.5 -4t-10 4t-4 10v0v58h-72
v0q-6 0 -10.5 4t-4.5 10v0v86v0q0 6 4.5 10.5t10.5 4.5v0h72v72v0q0 6 4 10t10 4t10.5 -4t4.5 -10v0v-72h72v0q6 0 10 -4.5t4 -10.5v0v-86zM721 276h-43v-58h43v0q6 0 10 4.5t4 10.5v0v29v0q0 6 -4 10t-10 4v0z" />
    <glyph glyph-name="weibiaoti-1-03" unicode="&#xe607;" 
d="M1002 446q-3 16 -16.5 30.5t-29.5 17.5l-16 4q-61 19 -92 73q-22 37 -22 80q0 20 5 39l5 14q4 16 -1.5 34.5t-17.5 29.5q-15 13 -58 38q-19 10 -34 18t-21 10l-6 3q-16 5 -34.5 0.5t-30.5 -16.5l-11 -12q-46 -44 -109 -44h-1v0q-64 0 -110 44l-11 12q-11 12 -30 16.5
t-35 -0.5q-19 -7 -61 -31q-19 -11 -33.5 -20.5t-19.5 -13.5l-5 -4q-12 -11 -17.5 -29.5t-0.5 -34.5l4 -15q15 -63 -17 -118q-36 -62 -107 -76l-1 -1q-16 -3 -30 -17.5t-17 -30.5q-3 -19 -3 -68q0 -22 1 -39t2 -24v-6q3 -16 16.5 -30.5t30.5 -17.5l15 -4q61 -18 93 -73
q22 -37 22 -80q0 -20 -5 -39l-4 -14q-5 -15 0.5 -34t17.5 -30q16 -13 58 -37q19 -11 34.5 -19t20.5 -10l6 -2q16 -6 35 -1.5t30 16.5l11 12q46 44 110 44t111 -45l10 -11q11 -12 30 -16.5t35 0.5q19 7 61 32q19 10 33.5 19.5t19.5 13.5l5 4q12 11 17.5 29.5t1.5 34.5l-5 16
q-15 62 17 117q37 63 107 77h1q16 3 30 17.5t17 30.5q3 19 3 68q0 22 -1 39.5t-2 23.5zM512.5 181q-81.5 0 -139.5 57.5t-58 139t57.5 139t139.5 57.5t139.5 -57.5t57.5 -139t-57.5 -139t-139 -57.5zM512 181z" />
    <glyph glyph-name="doc" unicode="&#xe60e;" 
d="M688 237h-291q-5 0 -8.5 -4t-3.5 -9t3.5 -8.5t8.5 -4.5h291q5 1 8.5 4.5t3.5 8.5t-3.5 9t-8.5 4v0zM688 331h-291q-5 0 -8.5 -4t-3.5 -9t3.5 -9t8.5 -4h291q5 0 8.5 4t3.5 9t-3.5 9t-8.5 4v0zM512 896q-139 0 -257 -68.5t-186.5 -186.5t-68.5 -257t68.5 -257
t186.5 -186.5t257 -68.5t257 68.5t186.5 186.5t68.5 257t-68.5 257t-186.5 186.5t-257 68.5zM660 666l123 -128h-98q-11 0 -18 7.5t-7 17.5v103zM808 124q0 -20 -14.5 -34.5t-34.5 -14.5h-428q-20 0 -34.5 14.5t-14.5 34.5v520q0 20 14.5 34.5t34.5 14.5h301v-130
q0 -22 15.5 -37.5t37.5 -15.5h123v-386zM385 411.5q0 -5.5 3.5 -9t8.5 -3.5h291q5 0 8.5 4t3.5 9t-3.5 8.5t-8.5 4.5h-291q-5 0 -8.5 -4t-3.5 -9.5z" />
    <glyph glyph-name="zhandian-copy" unicode="&#xe630;" 
d="M63 500v-76l415 319l414 -319v76l-414 319zM823 586v214h-126v-113l44 -39v108h38v-131l44 -39v0zM459 56h-270v398l-50 -36v-412h351q-6 6 -17 26t-14 24v0zM703 468q108 0 184.5 -76t76.5 -183.5t-76.5 -183.5t-184.5 -76t-184.5 76t-76.5 183.5t76.5 183.5t184.5 76z
M703 428q-91 0 -156 -64.5t-65 -155.5t65 -155.5t156 -64.5t156 64.5t65 155.5t-65 155.5t-156 64.5zM843 295l-34 -35l-35 6l-6 34l35 35q-11 12 -27 11q-22 -1 -40 -20q-31 -32 -15 -69q4 -8 -1.5 -13t-132.5 -124v0q-9 -8 -9 -20t8.5 -20.5t20.5 -8.5t20 8
q119 127 125 132.5t13 1.5q18 -7 37.5 -2.5t32.5 17.5q18 18 20 40q0 15 -12 27zM615 93q-7 -7 -14 0t0 14t14 0t0 -14z" />
    <glyph glyph-name="jinji" unicode="&#xe677;" 
d="M907 885h-791q-42 0 -72.5 -30.5t-30.5 -72.5v-791q0 -43 30.5 -73t72.5 -30h791q43 0 73 30t30 73v791q1 42 -29.5 72.5t-73.5 30.5zM512 7q-38 0 -67 25t-35 62h203q-5 -37 -34 -62t-67 -25zM787 119h-550q-18 0 -30.5 13t-12.5 30.5t12.5 30t30.5 12.5h17v232
q0 91 57 161t143 90q-3 10 -3 16q0 25 18 42.5t43 17.5t42.5 -17.5t17.5 -42.5q0 -5 -3 -16q87 -20 143.5 -90t56.5 -161v-232h18q17 0 30 -12.5t13 -30.5q0 -17 -12.5 -30t-30.5 -13z" />
    <glyph glyph-name="zujiwrite" unicode="&#xe610;" 
d="M889 649q5 5 5 12.5t-5 12.5l-169 172q-5 6 -12.5 6t-12.5 -5l-109 -108l194 -197zM279 75q9 -10 12 -13l464 455l-195 198l-463 -455q3 -3 5 -5.5t2.5 -2.5t1 -0.5l1 -1t2.5 -3.5zM70 236l-21 -217l218 17zM49 -35h922v-49h-922v49z" />
    <glyph glyph-name="Image" unicode="&#xe6da;" 
d="M512 893q-104 0 -198 -40t-162.5 -108.5t-109 -162.5t-40.5 -198t40.5 -198.5t109 -162.5t162.5 -108.5t198 -40.5t198 40.5t162.5 108.5t109 162.5t40.5 198.5t-40.5 198t-109 162.5t-162.5 108.5t-198 40zM325.5 583q32.5 0 55 -23t22.5 -55.5t-22.5 -55.5t-55 -23
t-55.5 23t-23 55.5t23 55.5t55.5 23zM830 185h-636v79l106 79l55 -51l161 184l51 -55l106 137l157 -242v-131z" />
    <glyph glyph-name="zujivoice" unicode="&#xe627;" 
d="M85 538h107l352 258q23 23 40.5 13t17.5 -55v-736q0 -32 -8 -46.5t-21 -12.5t-29 16l-352 259h-107q-25 0 -42.5 18t-17.5 43v182q0 25 17.5 43t42.5 18zM763 556q52 -75 52 -170q0 -91 -49 -164l-51 27q39 64 39 137q0 76 -42 143zM928 136l-52 28q61 98 61 222
q0 123 -64 231l51 27q76 -119 76 -258q-4 -140 -72 -250z" />
    <glyph glyph-name="fanyi" unicode="&#xe933;" 
d="M968 2h-130v-111q0 -8 -5.5 -13.5t-13 -5.5t-13 5.5t-5.5 13.5v111h-131q-15 0 -26 11t-11 27v167q0 16 11 26.5t26 10.5h131v131q0 7 5.5 12.5t13 5.5t13 -5.5t5.5 -12.5v-131h130q16 0 26.5 -10.5t10.5 -26.5v-167q0 -16 -10.5 -27t-26.5 -11zM708 207q-16 0 -27 -11
t-11 -26v-93q0 -16 11 -26.5t27 -10.5h93v167h-93zM968 170q0 15 -11 26t-26 11h-93v-167h93q15 0 26 10.5t11 26.5v93zM909 418q-9 0 -15 6.5t-6 15.5v338q0 31 -22 53t-53 22h-676q-31 0 -53 -22t-22 -53v-676q0 -31 22 -53t53 -22h403v-43h-403q-49 0 -83.5 34.5
t-34.5 83.5v676q0 49 34.5 83.5t83.5 34.5h676q49 0 83.5 -34.5t34.5 -83.5v-338q0 -9 -6.5 -15.5t-15.5 -6.5zM571 5q0 -9 -6.5 -15t-15.5 -6h-3v43h3q9 0 15.5 -6.5t6.5 -15.5zM265 151h-42l223 566h42l166 -435h-42l-24 69h-245zM575 383l-78 200q-9 26 -16 49
q-6 15 -16 39q-9 -36 -32 -85l-77 -203h219z" />
  </font>
</defs>
</svg>
